# xmcd
#
# Track frame offsets: 
#        150
#        10725
#        26250
#        37650
#        50962
#        62474
#        74549
#        92852
#        106614
#        122514
#        138446
#        149208
#        164548
#        177710
#        191735
#        204635
#        221052
#        229868
#        252930
#        263323
#        279675
#
# Disc length: 3835 seconds
#
# Revision: 0
# Processed by: cddbd v1.5.2PL0 Copyright (c) Steve Scherf et al.
# Submitted via: ExactAudioCopy v0.99pb5
#
DISCID=3a0ef915
DTITLE=Private Paul - Emopunkrap
DYEAR=2010
DGENRE=Emopunkrap
TTITLE0=Intromental
TTITLE1=Emopunkrap
TTITLE2=Das Schlechte im Menschen
TTITLE3=50 AE
TTITLE4=40%
TTITLE5=Hure
TTITLE6=WS Lifestyle
TTITLE7=Blutkunst
TTITLE8=Lolipop
TTITLE9=Weinerlicher Punkrap
TTITLE10=Wein für mich
TTITLE11=Bier für alle
TTITLE12=Blut für die Welt
TTITLE13=Drowning
TTITLE14=Slut
TTITLE15=r252
TTITLE16=Flieg
TTITLE17=Todeswut
TTITLE18=r253
TTITLE19=Kalt
TTITLE20=Outromental
EXTD=
EXTT0=
EXTT1=
EXTT2=
EXTT3=
EXTT4=
EXTT5=
EXTT6=
EXTT7=
EXTT8=
EXTT9=
EXTT10=
EXTT11=
EXTT12=
EXTT13=
EXTT14=
EXTT15=
EXTT16=
EXTT17=
EXTT18=
EXTT19=
EXTT20=
PLAYORDER=
